<svg xmlns="http://www.w3.org/2000/svg" width="24" height="24" fill="none" viewBox="0 0 24 24">
    <path fill="#0052CC" fill-rule="evenodd" d="M5.355 7.426l-2.437-2.24L4.2 4l16.118 14.822L19.036 20l-3.109-2.857c-1.218.442-2.545.685-3.927.685-4.545 0-8.427-2.599-10-6.267.7-1.646 1.873-3.066 3.355-4.135zM12 6.966c3.445 0 6.518 1.78 8.018 4.595-.536 1.02-1.29 1.897-2.19 2.607l1.281 1.178c1.264-1.027 2.264-2.314 2.891-3.785-1.573-3.668-5.454-6.266-10-6.266-1.155 0-2.264.167-3.31.476l1.5 1.379c.592-.109 1.192-.184 1.81-.184zm-.973.953l1.882 1.729c.518.209.936.593 1.164 1.07l1.882 1.729c.072-.284.127-.585.127-.894.009-2.072-1.827-3.751-4.082-3.751-.336 0-.655.041-.973.117zm-1.29 3.534l2.372 2.18c-.036.009-.073.017-.109.017-1.255 0-2.273-.936-2.273-2.089 0-.02.003-.037.005-.054s.004-.033.004-.054zm-1.5-1.379L6.644 8.612c-1.1.769-2.027 1.755-2.663 2.95 1.5 2.815 4.573 4.595 8.018 4.595.864 0 1.7-.117 2.5-.318l-.89-.819c-.492.193-1.037.301-1.61.301-2.255 0-4.09-1.688-4.09-3.76 0-.526.117-1.027.326-1.487z" clip-rule="evenodd"/>
</svg>
