<svg xmlns="http://www.w3.org/2000/svg" width="36" height="36" fill="none" viewBox="0 0 36 36">
    <path fill="0065ff" d="M0 0H36V36H0z"/>
    <path fill="#fff" fill-rule="evenodd" d="M22.408 21.352h1.174L31 28.785 28.785 31l-7.433-7.418v-1.174l-.401-.417c-1.695 1.457-3.895 2.334-6.288 2.334C9.326 24.325 5 20 5 14.663 5 9.326 9.326 5 14.663 5c5.336 0 9.662 4.326 9.662 9.663 0 2.393-.877 4.593-2.334 6.288l.417.401zm-14.435-6.69c0 3.702 2.988 6.69 6.69 6.69 3.701 0 6.69-2.988 6.69-6.69 0-3.7-2.989-6.689-6.69-6.689-3.702 0-6.69 2.988-6.69 6.69z" clip-rule="evenodd"/>
</svg>
