<svg xmlns="http://www.w3.org/2000/svg" width="258" height="185" fill="none" viewBox="0 0 258 185">
    <g clip-path="url(#prefix__clip0)">
        <path fill="#F2F2F2" d="M105.881 182.885c43.953 0 79.584-35.632 79.584-79.585 0-43.954-35.631-79.585-79.584-79.585-43.954 0-79.585 35.631-79.585 79.585 0 43.953 35.631 79.585 79.585 79.585z"/>
        <path fill="#FF991F" d="M212.858 44.698l-8.303 9.844c-.448 4.24-1.083 8.978-1.984 13.948l13.641-14.113.064.247c-.776-3.793-1.95-7.233-3.494-10.16l.076.234zM204.632 53.798l8.043-9.536c-1.756-3.263-3.979-5.87-6.635-7.58-.138-.09-.277-.173-.417-.257.002 1.16-.032 7.963-.991 17.373zM214.935 84.315l.017.286c.465-1.75.863-3.502 1.193-5.256l-19.782 12.772-.013-.13c-.374 1.019-.759 2.019-1.154 3l19.739-10.672zM217.292 68.796l.04.27c.226-4.749-.111-9.508-1.004-14.178L202.427 69.27c-.865 4.654-1.884 9.085-3.056 13.29l17.921-13.764zM182.218 44.733c-2.056 2.692-3.834 5.584-5.308 8.633l22.912 26.154c.943-3.668 1.704-7.226 2.316-10.543l-20.041-23.984.121-.26zM175.291 56.957l.117-.263L198.936 82.8c.254-.893.496-1.782.727-2.667l-22.996-26.25.118-.262c-.52 1.074-1.018 2.187-1.494 3.337zM216.18 78.728l.028.279c.586-3.181.957-6.398 1.11-9.629l-18.163 13.95c-.798 2.8-1.662 5.49-2.592 8.066l19.617-12.666zM189.962 105.863c-3.078 5.357-6.566 9.886-10.43 13.533 4.273-1.723 21.488-9.316 30.41-23.008l-19.98 9.475zM171.712 70.245c-.341 3.088-.475 6.196-.4 9.303l.143-.279 18.453 25.887c1.695-3.015 3.207-6.128 4.529-9.323l-22.725-25.588zM204.292 53.769c1.035-10.181.98-17.276.979-17.377l.176-.072c-4.155-2.408-8.745-2.324-13.217-.184l12.062 17.633zM194.886 95.744c-.125.303-.249.609-.376.908-1.21 2.874-2.576 5.681-4.092 8.406l19.791-9.384.01.28c1.55-2.423 2.787-5.034 3.682-7.769.346-1.076.666-2.156.959-3.24l-19.974 10.8zM202.259 68.315c.886-4.915 1.513-9.597 1.955-13.788L191.875 36.49l.13-.246c-3.36 1.662-6.647 4.485-9.624 8.282l19.878 23.789z"/>
        <path fill="#FF991F" d="M189.637 105.633l-18.318-25.697c.441 18.627 6.801 38.507 7.212 39.771 4.399-3.939 8.06-8.783 11.106-14.074zM194.649 95.282l.019-.01c1.578-3.882 2.946-7.847 4.098-11.876l-23.587-26.17c-.637 1.562-1.229 3.189-1.776 4.88-.761 2.427-1.3 4.917-1.608 7.442l22.854 25.734zM231.523 121.175l-12.673 2.286c-3.05 2.98-6.561 6.224-10.425 9.478l19.508-2.169-.108.23c1.821-3.416 3.111-6.814 3.788-10.053l-.09.228zM219.384 122.938l12.276-2.215c.729-3.633.68-7.058-.275-10.07-.05-.157-.103-.31-.158-.463-.737.894-5.103 6.112-11.843 12.748zM207.854 153.013l-.169.231c1.474-1.051 2.898-2.147 4.271-3.287l-23.382-2.78.073-.109c-.938.546-1.872 1.071-2.802 1.574l22.009 4.371zM219.568 142.563l-.142.234c3.204-3.513 5.979-7.393 8.27-11.56l-19.879 2.21c-3.636 3.033-7.246 5.796-10.831 8.287l22.582.829zM207.901 101.66c-3.299.762-6.513 1.855-9.593 3.263l.965 34.757c3.066-2.223 5.921-4.478 8.508-6.643l-.138-31.254.258-.123zM194.771 106.657l.256-.128 1.472 35.113c.765-.527 1.519-1.058 2.261-1.591l-.969-34.886.258-.126c-1.086.496-2.179 1.035-3.278 1.618zM212.377 149.504l-.157.233c2.481-2.076 4.818-4.317 6.997-6.708l-22.887-.841c-2.401 1.648-4.781 3.168-7.141 4.559l23.188 2.757zM174.877 153.68c-5.788 2.163-11.363 3.427-16.665 3.772 4.39 1.398 22.492 6.53 38.096 1.675l-21.431-5.447z"/>
        <path fill="#FF991F" d="M183.539 114.608c-2.233 2.161-4.318 4.469-6.242 6.91l.288-.123-2.298 31.707c3.227-1.241 6.378-2.674 9.434-4.292l-1.182-34.202zM219.14 122.699c7.291-7.182 11.773-12.681 11.837-12.76l.181.057c-1.663-4.504-5.253-7.368-10.062-8.571l-1.956 21.274zM185.123 149.028c-.29.154-.58.31-.868.46-2.766 1.441-5.608 2.731-8.514 3.864l21.228 5.395-.171.222c2.74-.878 5.358-2.099 7.791-3.635.953-.608 1.888-1.236 2.805-1.884l-22.271-4.422zM208.296 132.604c3.818-3.219 7.287-6.426 10.3-9.371l2.001-21.762.257-.107c-3.647-.863-7.979-.785-12.694.24l.136 31zM174.773 153.296l2.282-31.475c-11.541 14.628-19.322 33.996-19.813 35.231 5.901-.228 11.81-1.623 17.531-3.756zM185.235 148.521l.021.005c3.692-1.984 7.274-4.165 10.731-6.534l-1.475-35.199c-1.487.796-2.98 1.671-4.48 2.626-2.134 1.383-4.137 2.958-5.985 4.705l1.188 34.397zM165.702 78.799l-4.854 11.928c.885 4.17 1.745 8.873 2.425 13.878l8.611-17.638.137.215c-1.91-3.367-4.091-6.276-6.464-8.582l.145.199zM160.692 89.996l4.702-11.555c-2.679-2.56-5.599-4.353-8.654-5.159-.159-.042-.317-.078-.475-.115.36 1.102 2.431 7.583 4.427 16.829zM179.923 115.834l.104.266c-.098-1.808-.261-3.597-.489-5.367l-14.866 18.262-.053-.12c-.041 1.085-.097 2.154-.17 3.209l15.474-16.25zM177.368 100.346l.121.245c-1.252-4.587-3.044-9.008-5.337-13.173l-8.775 17.974c.616 4.694 1.016 9.222 1.201 13.584l12.79-18.63zM136.573 88.303c-1.123 3.195-1.92 6.495-2.379 9.85l29.874 17.792c-.237-3.78-.613-7.398-1.057-10.743l-26.472-16.615.034-.284zM133.764 102.069l.03-.285 30.445 17.554c-.035-.929-.079-1.849-.133-2.761l-29.984-17.858.032-.285c-.163 1.182-.293 2.394-.39 3.635zM179.38 110.135l.113.257c-.426-3.206-1.067-6.38-1.92-9.5l-12.962 18.882c.106 2.909.116 5.733.027 8.471l14.742-18.11z"/>
        <path fill="#FF991F" d="M162.833 144.045c-1.271 6.047-3.189 11.432-5.735 16.095 3.531-2.96 17.556-15.502 21.808-31.281l-16.073 15.186zM134.468 115.812c.63 3.043 1.463 6.04 2.494 8.972l.051-.31 25.551 18.916c.679-3.391 1.155-6.819 1.425-10.266l-29.521-17.312zM160.36 90.073c-2.163-10.002-4.408-16.732-4.441-16.829l.145-.122c-4.695-1.006-9.035.493-12.626 3.91l16.922 13.041zM164.388 132.9c-.025.327-.048.656-.076.98-.263 3.108-.695 6.199-1.294 9.259l15.921-15.042.096.264c.726-2.784 1.095-5.649 1.101-8.527-.003-1.13-.033-2.256-.09-3.377L164.388 132.9zM162.921 104.535c-.675-4.948-1.527-9.594-2.402-13.716l-17.31-13.34.048-.275c-2.682 2.62-4.935 6.32-6.593 10.851l26.257 16.48z"/>
        <path fill="#FF991F" d="M162.453 143.927l-25.364-18.776c6.178 17.578 18.371 34.519 19.152 35.594 2.966-5.106 4.95-10.844 6.212-16.818zM164.021 132.534l.014-.015c.301-4.18.377-8.373.226-12.561l-30.52-17.597c-.123 1.681-.184 3.411-.181 5.189.026 2.543.284 5.078.771 7.574l29.69 17.41z"/>
        <path fill="#3F3D56" d="M128.686 184.979c71.071 0 128.685-3.334 128.685-7.447 0-4.112-57.614-7.446-128.685-7.446C57.614 170.086 0 173.42 0 177.532c0 4.113 57.614 7.447 128.686 7.447z"/>
        <path fill="#000" d="M173.365 168.046c0 14.473-20.174 9.997-44.874 9.997-24.7 0-44.574 4.476-44.574-9.997 0-14.472 20.171-17.62 44.871-17.62 24.7 0 44.577 3.147 44.577 17.62z" opacity=".1"/>
        <path fill="#3F3D56" d="M173.365 164.483c0 14.473-20.174 9.996-44.874 9.996-24.7 0-44.574 4.477-44.574-9.996s20.171-17.621 44.871-17.621c24.7 0 44.577 3.148 44.577 17.621z"/>
        <path fill="#FF991F" d="M99.715 136.504c11.053 0 20.013-8.96 20.013-20.012 0-11.053-8.96-20.013-20.013-20.013s-20.013 8.96-20.013 20.013c0 11.052 8.96 20.012 20.013 20.012zM89.537 86.77c-3.7 1.242-7.73 1.06-11.304-.51-3.573-1.571-6.432-4.417-8.02-7.982L48.521 29.56c-1.19-2.674-1.81-5.567-1.817-8.494-.007-2.927.598-5.823 1.776-8.503 1.178-2.68 2.902-5.084 5.064-7.058 2.16-1.974 4.71-3.475 7.486-4.406 2.789-.936 5.743-1.275 8.672-.996 2.929.278 5.766 1.17 8.329 2.614 2.562 1.445 4.792 3.413 6.546 5.774 1.754 2.362 2.992 5.066 3.635 7.937L99.857 68.47c.847 3.787.261 7.753-1.645 11.133-1.906 3.38-4.997 5.933-8.675 7.168z"/>
        <path fill="#000" d="M99.715 136.504c11.053 0 20.013-8.96 20.013-20.012 0-11.053-8.96-20.013-20.013-20.013s-20.013 8.96-20.013 20.013c0 11.052 8.96 20.012 20.013 20.012zM89.537 86.77c-3.7 1.242-7.73 1.06-11.304-.51-3.573-1.571-6.432-4.417-8.02-7.982L48.521 29.56c-1.19-2.674-1.81-5.567-1.817-8.494-.007-2.927.598-5.823 1.776-8.503 1.178-2.68 2.902-5.084 5.064-7.058 2.16-1.974 4.71-3.475 7.486-4.406 2.789-.936 5.743-1.275 8.672-.996 2.929.278 5.766 1.17 8.329 2.614 2.562 1.445 4.792 3.413 6.546 5.774 1.754 2.362 2.992 5.066 3.635 7.937L99.857 68.47c.847 3.787.261 7.753-1.645 11.133-1.906 3.38-4.997 5.933-8.675 7.168z" opacity=".1"/>
        <path fill="#FF991F" d="M98.975 130.342c8.868 0 16.056-7.189 16.056-16.057 0-8.867-7.188-16.056-16.056-16.056-8.868 0-16.057 7.189-16.057 16.056 0 8.868 7.189 16.057 16.057 16.057zM87.63 81.028c-3.396 1.14-7.093.972-10.372-.469-3.278-1.44-5.901-4.051-7.358-7.323l-19.904-44.7c-1.092-2.453-1.66-5.107-1.666-7.793-.007-2.686.548-5.343 1.629-7.802 1.08-2.459 2.663-4.664 4.646-6.476 1.983-1.81 4.323-3.188 6.869-4.042 2.559-.859 5.27-1.17 7.957-.914 2.687.255 5.29 1.073 7.641 2.399 2.352 1.325 4.398 3.13 6.007 5.297 1.61 2.168 2.746 4.649 3.335 7.283l10.685 47.75c.777 3.474.24 7.113-1.51 10.214-1.748 3.101-4.584 5.444-7.96 6.576z"/>
    </g>
    <defs>
        <clipPath id="prefix__clip0">
            <path fill="#fff" d="M0 0H257.371V185H0z"/>
        </clipPath>
    </defs>
</svg>
