<svg xmlns="http://www.w3.org/2000/svg" width="186" height="212" fill="none" viewBox="0 0 186 212">
    <g clip-path="url(#clip0)">
        <path fill="#F2F2F2" d="M88.688 211.5c48.98 0 88.687-15.614 88.687-34.875s-39.707-34.875-88.688-34.875C39.708 141.75 0 157.364 0 176.625S39.707 211.5 88.688 211.5z"/>
        <path stroke="#3F3D56" stroke-miterlimit="10" stroke-width="2" d="M96.938 204.375c48.98 0 88.687-15.614 88.687-34.875s-39.707-34.875-88.688-34.875c-48.98 0-88.687 15.614-88.687 34.875s39.707 34.875 88.688 34.875z"/>
        <path fill="#2F2E41" d="M46.802 158.062c16.361 0 29.625-13.263 29.625-29.624 0-16.362-13.264-29.625-29.625-29.625-16.362 0-29.625 13.263-29.625 29.625 0 16.361 13.263 29.624 29.625 29.624z"/>
        <path fill="#2F2E41" d="M42.302 151.687h-9v16.125h9v-16.125zM60.302 151.687h-9v16.125h9v-16.125z"/>
        <path fill="#2F2E41" d="M40.802 170.812c4.142 0 7.5-1.259 7.5-2.812s-3.358-2.812-7.5-2.812c-4.142 0-7.5 1.259-7.5 2.812s3.358 2.812 7.5 2.812zM58.802 170.438c4.142 0 7.5-1.26 7.5-2.813 0-1.553-3.358-2.813-7.5-2.813-4.142 0-7.5 1.26-7.5 2.813 0 1.553 3.358 2.813 7.5 2.813z"/>
        <path fill="#fff" d="M47.552 131.063c5.592 0 10.125-4.534 10.125-10.125 0-5.592-4.533-10.126-10.125-10.126s-10.125 4.534-10.125 10.126c0 5.591 4.533 10.125 10.125 10.125z"/>
        <path fill="#3F3D56" d="M47.552 124.312c1.864 0 3.375-1.511 3.375-3.375 0-1.863-1.511-3.375-3.375-3.375s-3.375 1.512-3.375 3.375c0 1.864 1.51 3.375 3.375 3.375z"/>
        <path fill="#4C9AFF" d="M18.064 100.887c-2.392-10.713 5.255-21.538 17.08-24.178 11.824-2.64 23.349 3.904 25.74 14.617 2.393 10.713-5.444 14.664-17.268 17.304-11.825 2.64-23.16 2.97-25.552-7.743z"/>
        <path fill="#2F2E41" d="M74.587 122.529c7.52-3.219 12.799-7.743 11.788-10.104-1.01-2.361-7.927-1.665-15.447 1.554-7.521 3.219-12.799 7.742-11.788 10.103 1.01 2.361 7.926 1.666 15.447-1.553zM19.087 142.404c7.52-3.219 12.799-7.743 11.788-10.104-1.01-2.361-7.927-1.665-15.447 1.554-7.521 3.219-12.799 7.742-11.788 10.103 1.01 2.361 7.926 1.666 15.447-1.553z"/>
        <path fill="#fff" d="M64.052 137.063c0 2.899-7.466 8.624-15.75 8.624-8.285 0-16.125-5.35-16.125-8.249 0-2.9 7.84-2.25 16.125-2.25 8.284 0 15.75-1.025 15.75 1.875z"/>
        <path fill="#4C9AFF" d="M102.976 152.427c12.672 0 22.945-10.273 22.945-22.945s-10.273-22.945-22.945-22.945-22.945 10.273-22.945 22.945 10.273 22.945 22.945 22.945z"/>
        <path stroke="#3F3D56" stroke-miterlimit="10" stroke-width="2" d="M102.956 170.976v-41.62"/>
        <path fill="#3F3D56" d="M102.956 135.241c3.25 0 5.885-2.635 5.885-5.885 0-3.251-2.635-5.886-5.885-5.886s-5.886 2.635-5.886 5.886c0 3.25 2.635 5.885 5.886 5.885zM102.956 155.007s-.841-18.084-18.078-15.982z"/>
        <path stroke="#3F3D56" stroke-miterlimit="10" stroke-width="2" d="M54 171h80.25"/>
        <path fill="#FFAB00" d="M165.375 127.875c6.627 0 12-5.373 12-12s-5.373-12-12-12-12 5.373-12 12 5.373 12 12 12zM84.75 76.125c6.627 0 12-5.373 12-12s-5.373-12-12-12-12 5.373-12 12 5.373 12 12 12zM134.25 56.625c6.627 0 12-5.373 12-12s-5.373-12-12-12-12 5.373-12 12 5.373 12 12 12z"/>
    </g>
    <defs>
        <clipPath id="clip0">
            <path fill="#fff" d="M0 0H186V211.5H0z"/>
        </clipPath>
    </defs>
</svg>
