<svg xmlns="http://www.w3.org/2000/svg" width="202" height="199" fill="none" viewBox="0 0 202 199">
    <path fill="#3F3D56" d="M144.351 47.046h-1.088v-29.8c0-2.264-.446-4.507-1.313-6.6-.867-2.092-2.137-3.993-3.739-5.595-1.601-1.601-3.503-2.871-5.595-3.738C130.523.446 128.281 0 126.016 0H62.883c-2.265 0-4.508.446-6.6 1.313-2.093.867-3.994 2.137-5.596 3.738-1.601 1.602-2.872 3.503-3.738 5.596-.867 2.092-1.313 4.335-1.313 6.6v163.48c0 2.265.446 4.507 1.313 6.6.866 2.092 2.137 3.994 3.738 5.595 1.602 1.602 3.503 2.872 5.596 3.739 2.092.866 4.335 1.313 6.6 1.313h63.133c2.265 0 4.508-.447 6.6-1.313 2.092-.867 3.994-2.137 5.595-3.739 1.602-1.601 2.872-3.503 3.739-5.595.867-2.093 1.313-4.335 1.313-6.6V68.257h1.088V47.046z"/>
    <path fill="#3F3D56" d="M199.733 189.845H.122v.556h199.611v-.556z"/>
    <path fill="#000" d="M139.592 17.368v163.239c.002 1.692-.33 3.368-.977 4.931-.647 1.564-1.595 2.984-2.792 4.18-1.196 1.197-2.617 2.146-4.18 2.792-1.563.647-3.239.979-4.931.978H63.276c-1.692.001-3.368-.332-4.93-.978-1.564-.647-2.984-1.596-4.18-2.792-1.197-1.197-2.146-2.617-2.792-4.18-.647-1.563-.98-3.239-.979-4.931V17.368c0-1.692.332-3.367.978-4.93.647-1.564 1.596-2.984 2.792-4.18 1.197-1.197 2.617-2.145 4.18-2.792 1.563-.647 3.239-.98 4.93-.978h7.696c-.379.929-.524 1.937-.421 2.935.102.998.449 1.956 1.008 2.789.56.833 1.316 1.515 2.202 1.987.885.472 1.873.718 2.877.718h36.169c1.003 0 1.992-.246 2.877-.718.886-.472 1.642-1.154 2.202-1.987.559-.833.906-1.79 1.008-2.789.103-.998-.042-2.006-.421-2.935h8.24c1.692-.002 3.368.33 4.931.977 1.563.647 2.984 1.596 4.18 2.792 1.197 1.196 2.145 2.617 2.792 4.18.647 1.564.979 3.24.977 4.931z" opacity=".2"/>
    <path fill="#3F3D56" d="M19.95 190.372l-.3-.112c-.065-.025-6.59-2.525-9.647-8.194-3.057-5.669-1.56-12.495-1.545-12.563l.07-.311.299.112c.065.024 6.59 2.524 9.648 8.194 3.057 5.669 1.56 12.495 1.544 12.563l-.07.311zm-9.458-8.57c2.585 4.793 7.741 7.25 9.048 7.811.248-1.4 1.027-7.063-1.555-11.852-2.582-4.788-7.74-7.248-9.047-7.811-.249 1.401-1.028 7.064 1.554 11.852z"/>
    <path fill="#4C9AFF" d="M12.339 180.077c5.493 3.306 7.61 9.87 7.61 9.87s-6.792 1.207-12.286-2.098c-5.493-3.306-7.609-9.871-7.609-9.871s6.791-1.206 12.285 2.099z"/>
    <path fill="#3F3D56" d="M66.4 4.488v189h-3.124c-.818.001-1.633-.076-2.436-.231V4.719c.803-.155 1.618-.232 2.436-.231H66.4zM96.425 12.917h-5.56v180.571h5.56V12.918zM131.177 5.283v187.41c-1.429.527-2.941.797-4.465.795h-1.095v-189h1.095c1.524-.002 3.036.267 4.465.795z"/>
    <path fill="#3F3D56" d="M139.592 35.959H50.395v5.56h89.197v-5.56zM139.592 99.067H50.395v5.56h89.197v-5.56zM136.737 130.204h-44.76v5.56h44.76v-5.56zM139.592 59.59H90.865v5.56h48.727v-5.56z"/>
    <path fill="#3F3D56" d="M94.883 41.146l-.645.373-3.373 1.946-24.464 14.126-5.56 3.21-10.446 6.03V60.41l10.445-6.03 5.56-3.209 16.717-9.652 7.748-4.473 1.238-.715 2.78 4.815zM139.592 159.951H50.395v5.56h89.197v-5.56z"/>
    <path fill="#4C9AFF" d="M158.978 59.867c0 17.658-31.971 56.993-31.971 56.993S95.035 77.525 95.035 59.868c0-8.48 3.369-16.612 9.365-22.608 5.995-5.995 14.127-9.364 22.607-9.364 8.479 0 16.611 3.369 22.607 9.364 5.995 5.996 9.364 14.128 9.364 22.608z"/>
    <path fill="#000" d="M127.007 77.382c10.441 0 18.904-8.464 18.904-18.905 0-10.44-8.463-18.904-18.904-18.904s-18.905 8.464-18.905 18.904c0 10.441 8.464 18.905 18.905 18.905z" opacity=".2"/>
    <path fill="#4C9AFF" d="M126.385 65.94c3.89 0 7.043-3.153 7.043-7.043s-3.153-7.043-7.043-7.043c-3.889 0-7.043 3.154-7.043 7.043 0 3.89 3.154 7.043 7.043 7.043zM137.38 79.328c.295-1.528.248-3.103-.137-4.612-.385-1.508-1.099-2.912-2.09-4.113-.991-1.2-2.236-2.166-3.644-2.83-1.408-.663-2.946-1.007-4.502-1.007-1.557 0-3.094.344-4.503 1.007-1.408.663-2.652 1.63-3.643 2.83-.991 1.2-1.705 2.605-2.09 4.114-.385 1.508-.432 3.083-.138 4.611h20.747zM127.105 139.934c4.759 0 8.618-3.858 8.618-8.618s-3.859-8.618-8.618-8.618c-4.76 0-8.619 3.858-8.619 8.618s3.859 8.618 8.619 8.618z"/>
</svg>
