<svg xmlns="http://www.w3.org/2000/svg" width="48" height="48" fill="none" viewBox="0 0 48 48">
    <path fill="#red" d="M0 0H48V48H0z"/>
    <path fill="#333" fill-rule="evenodd" d="M24 4C12.96 4 4 12.96 4 24s8.96 20 20 20 20-8.96 20-20S35.04 4 24 4zM11 37.086C12.134 34.514 19.043 32 24 32c4.957 0 11.892 2.514 13 5.086C33.414 40.17 28.905 42 24 42c-4.905 0-9.414-1.829-13-4.914zm13-7.353c3.285 0 11.093 1.334 14.31 5.267C40.605 31.971 42 28.196 42 24.083 42 14.115 33.922 6 24 6S6 14.115 6 24.083C6 28.196 7.395 31.97 9.69 35c3.218-3.933 11.025-5.267 14.31-5.267zM24 12c-3.88 0-7 3.12-7 7s3.12 7 7 7 7-3.12 7-7-3.12-7-7-7zm-5 7c0 2.767 2.233 5 5 5s5-2.233 5-5-2.233-5-5-5-5 2.233-5 5z" clip-rule="evenodd"/>
    <circle cx="36" cy="36" r="12" fill="#DEEBFF"/>
    <path fill="#333" fill-rule="evenodd" d="M29 32.667V31h15v1.667H29zm0 4.166h15v-1.666H29v1.666zM29 41h15v-1.667H29V41z" clip-rule="evenodd"/>
</svg>
