<svg xmlns="http://www.w3.org/2000/svg" width="216" height="180" fill="none" viewBox="0 0 216 180">
    <rect width="216" height="179.321" fill="#333" rx="48.906"/>
    <rect width="214.642" height="177.962" x=".679" y=".679" stroke="#000" stroke-opacity=".08" stroke-width="1.358" rx="48.226"/>
    <path fill="#0052CC" d="M7.63 76.307h200.306v57.23c0 21.071-17.082 38.153-38.153 38.153H45.784c-21.071 0-38.153-17.082-38.153-38.153v-57.23zM207.936 72.491H7.63V45.784c0-21.072 17.082-38.153 38.154-38.153h123.998c21.072 0 38.154 17.081 38.154 38.153v26.707z"/>
    <rect width="205.132" height="168.453" x="5.434" y="5.434" stroke="#F7F7F7" stroke-width="10.868" rx="43.472"/>
    <rect width="214.642" height="177.962" x=".679" y=".679" stroke="#4C5563" stroke-width="1.358" rx="48.226"/>
    <path fill="#F8F8F8" d="M44.074 51.084h-4.537V63.36h-8.382v-34.77h13.683c4.124 0 7.347.916 9.672 2.747 2.324 1.83 3.486 4.418 3.486 7.76 0 2.42-.493 4.427-1.48 6.019-.971 1.591-2.5 2.881-4.585 3.868l7.26 14.018v.358h-8.98l-6.137-12.275zm-4.537-6.47h5.301c1.592 0 2.786-.415 3.582-1.243.812-.843 1.218-2.014 1.218-3.51s-.406-2.666-1.218-3.51c-.812-.86-2.006-1.29-3.582-1.29h-5.3v9.552zm52.965 2.077c0 3.39-.628 6.391-1.886 9.002-1.258 2.611-3.049 4.625-5.373 6.042-2.308 1.4-4.943 2.101-7.904 2.101-2.961 0-5.588-.676-7.88-2.03-2.293-1.369-4.084-3.319-5.374-5.85-1.273-2.531-1.942-5.437-2.005-8.716v-1.958c0-3.407.62-6.408 1.862-9.003 1.258-2.61 3.049-4.625 5.373-6.042 2.34-1.416 4.999-2.125 7.976-2.125 2.945 0 5.572.7 7.88 2.102 2.309 1.4 4.1 3.398 5.373 5.993 1.29 2.58 1.942 5.54 1.958 8.884v1.6zm-8.525-1.457c0-3.455-.58-6.073-1.743-7.857-1.146-1.798-2.794-2.698-4.943-2.698-4.203 0-6.424 3.152-6.662 9.456l-.024 2.556c0 3.406.565 6.025 1.695 7.856 1.13 1.83 2.81 2.746 5.039 2.746 2.117 0 3.749-.9 4.895-2.698 1.146-1.8 1.727-4.386 1.743-7.761v-1.6zm40.118-16.644v22.757c0 2.58-.549 4.816-1.648 6.71-1.098 1.879-2.674 3.312-4.728 4.299-2.053.987-4.481 1.48-7.283 1.48-4.235 0-7.57-1.098-10.006-3.295-2.435-2.197-3.677-5.206-3.725-9.027V28.59h8.43V51.68c.095 3.805 1.862 5.708 5.301 5.708 1.735 0 3.049-.478 3.94-1.433.892-.955 1.337-2.507 1.337-4.657V28.59h8.382zm32.548 6.471h-10.435V63.36h-8.382V35.06h-10.244V28.59h29.061v6.471zm25.122 13.564h-13.182v8.286h15.57v6.448h-23.952v-34.77H184.2v6.472h-15.617v7.331h13.182v6.233zM72.722 134.618H47.208v-11.08h25.514v11.08zm33.97 21.099H92.343v-45.679l-14.094 4.118v-10.868l27.127-9.382h1.316v61.811zm38.132-23.901c-3.085 2.774-6.538 4.16-10.359 4.16-5.604 0-10.047-1.896-13.33-5.688-3.283-3.793-4.925-8.859-4.925-15.198 0-3.963.92-7.642 2.76-11.038 1.839-3.396 4.415-6.085 7.726-8.066 3.34-1.981 7.019-2.972 11.038-2.972 4.075 0 7.755 1.033 11.038 3.1 3.311 2.037 5.886 4.938 7.726 8.702 1.84 3.736 2.788 8.052 2.844 12.948v5.477c0 6.82-1.344 12.735-4.033 17.745-2.66 5.009-6.467 8.858-11.419 11.547-4.953 2.689-10.727 4.033-17.321 4.033h-.892v-11.462l2.717-.043c9.849-.481 15.326-4.896 16.43-13.245zm-6.496-6.156c3.113 0 5.349-1.344 6.708-4.033v-5.943c0-3.962-.665-6.892-1.996-8.788-1.33-1.896-3.127-2.844-5.391-2.844-2.009 0-3.693 1.075-5.052 3.226-1.358 2.151-2.038 4.755-2.038 7.812 0 3.226.694 5.802 2.081 7.726 1.386 1.896 3.283 2.844 5.688 2.844z"/>
    <path fill="#F8F8F8" d="M206.029 68.676H215.567V265.166H206.029z" transform="rotate(90 206.029 68.676)"/>
</svg>
