<svg width="114" height="94" viewBox="0 0 114 94" fill="none" xmlns="http://www.w3.org/2000/svg">
<rect y="4.57764e-05" width="113.227" height="94" rx="25.6364" fill="#333333"/>
<rect x="0.356061" y="0.356106" width="112.515" height="93.2879" rx="25.2803" stroke="black" stroke-opacity="0.08" stroke-width="0.712121"/>
<path d="M4 40H109V70C109 81.0457 100.046 90 89 90H24C12.9543 90 4 81.0457 4 70V40Z" fill="#0052CC"/>
<path d="M109 38L4 38L4 24C4 12.9543 12.9543 4 24 4L89 4.00001C100.046 4.00001 109 12.9543 109 24L109 38Z" fill="#0052CC"/>
<rect x="2.84848" y="2.84853" width="107.53" height="88.303" rx="22.7879" stroke="#F7F7F7" stroke-width="5.69697"/>
<rect x="0.356061" y="0.356106" width="112.515" height="93.2879" rx="25.2803" stroke="#4C5563" stroke-width="0.712121"/>
<path d="M23.1036 26.2781H20.7252V32.7122H16.3315V14.4863H23.5042C25.6656 14.4863 27.3555 14.9662 28.5739 15.9259C29.7923 16.8856 30.4015 18.2417 30.4015 19.9941C30.4015 21.2626 30.1428 22.3141 29.6254 23.1486C29.1163 23.9831 28.3152 24.6591 27.2219 25.1765L31.0273 32.5244V32.7122H26.3207L23.1036 26.2781ZM20.7252 22.8858H23.5042C24.3387 22.8858 24.9646 22.6688 25.3818 22.2348C25.8074 21.7925 26.0202 21.1792 26.0202 20.3947C26.0202 19.6103 25.8074 18.9969 25.3818 18.5546C24.9562 18.104 24.3303 17.8786 23.5042 17.8786H20.7252V22.8858ZM48.4896 23.9748C48.4896 25.7523 48.16 27.3254 47.5007 28.694C46.8414 30.0626 45.9026 31.1183 44.6842 31.861C43.4742 32.5954 42.093 32.9625 40.5408 32.9625C38.9886 32.9625 37.6117 32.6079 36.41 31.8985C35.2083 31.1808 34.2694 30.1586 33.5935 28.8317C32.9259 27.5048 32.5754 25.9818 32.542 24.2627V23.2362C32.542 21.4504 32.8675 19.8773 33.5184 18.5171C34.1776 17.1484 35.1165 16.0928 36.3349 15.3501C37.5616 14.6073 38.9553 14.236 40.5158 14.236C42.0597 14.236 43.4366 14.6032 44.6467 15.3375C45.8567 16.0719 46.7955 17.1192 47.4632 18.4795C48.1391 19.8314 48.4813 21.3836 48.4896 23.1361V23.9748ZM44.0208 23.2112C44.0208 21.4003 43.7162 20.0275 43.107 19.0929C42.5061 18.1499 41.6424 17.6784 40.5158 17.6784C38.3127 17.6784 37.1485 19.3307 37.0233 22.6354L37.0108 23.9748C37.0108 25.7607 37.3071 27.1334 37.8996 28.0931C38.4921 29.0528 39.3725 29.5327 40.5408 29.5327C41.6507 29.5327 42.5061 29.0612 43.107 28.1182C43.7078 27.1752 44.0124 25.8191 44.0208 24.0499V23.2112ZM65.0506 14.4863V26.4158C65.0506 27.7677 64.7627 28.9402 64.1869 29.9332C63.6111 30.918 62.7849 31.669 61.7084 32.1864C60.6318 32.7038 59.3592 32.9625 57.8904 32.9625C55.6706 32.9625 53.9223 32.3867 52.6455 31.2351C51.3687 30.0835 50.7178 28.5062 50.6927 26.5034V14.4863H55.1115V26.591C55.1616 28.5855 56.0879 29.5827 57.8904 29.5827C58.8001 29.5827 59.4885 29.3324 59.9559 28.8317C60.4232 28.331 60.6569 27.5173 60.6569 26.3907V14.4863H65.0506ZM82.1123 17.8786H76.642V32.7122H72.2483V17.8786H66.8782V14.4863H82.1123V17.8786ZM95.281 24.9887H88.3712V29.3324H96.5328V32.7122H83.9774V14.4863H96.5578V17.8786H88.3712V21.7216H95.281V24.9887Z" fill="#F8F8F8"/>
<path d="M38.1207 70.1066H24.7462V64.2983H38.1207V70.1066ZM55.9282 81.1667H48.4064V57.2216L41.0182 59.3802V53.6833L55.2384 48.7652H55.9282V81.1667ZM75.9166 68.6378C74.2995 70.0917 72.4895 70.8187 70.4866 70.8187C67.5491 70.8187 65.2199 69.8247 63.499 67.8367C61.778 65.8487 60.9175 63.1931 60.9175 59.8698C60.9175 57.7928 61.3997 55.8641 62.364 54.0838C63.3283 52.3035 64.6784 50.8941 66.4142 49.8556C68.1648 48.8171 70.0935 48.2979 72.2002 48.2979C74.3366 48.2979 76.2652 48.8394 77.9862 49.9224C79.722 50.9906 81.072 52.5112 82.0364 54.4844C83.0007 56.4427 83.4977 58.7052 83.5274 61.2718V64.1426C83.5274 67.718 82.8227 70.8187 81.4133 73.4446C80.0187 76.0706 78.0233 78.0883 75.427 79.4977C72.8307 80.9071 69.8042 81.6118 66.3474 81.6118H65.8801V75.6033L67.3044 75.581C72.4672 75.3288 75.338 73.0144 75.9166 68.6378ZM72.5117 65.411C74.1437 65.411 75.3157 64.7063 76.0278 63.2969V60.1814C76.0278 58.1044 75.6792 56.5688 74.9819 55.5748C74.2846 54.5808 73.3426 54.0838 72.1557 54.0838C71.1023 54.0838 70.2196 54.6476 69.5075 55.7751C68.7954 56.9027 68.4393 58.2676 68.4393 59.8698C68.4393 61.5611 68.8028 62.9112 69.5297 63.92C70.2567 64.914 71.2507 65.411 72.5117 65.411Z" fill="#F8F8F8"/>
<rect x="108" y="36" width="5" height="103" transform="rotate(90 108 36)" fill="#F8F8F8"/>
</svg>
