<svg xmlns="http://www.w3.org/2000/svg" width="236" height="194" fill="none" viewBox="0 0 236 194">
    <path fill="url(#paint0_linear)" d="M202.018 185.371h-45.647l-77.749 7.556-78.35-7.556V.259l78.025 5.667L158.008.259l77.978 10.704-2.002 142.154-31.966 32.254z"/>
    <path fill="#fff" d="M200.53 182.798h-44.648l-76.048 7.352-76.637-7.352V2.689l76.32 5.514 77.966-5.514 76.272 10.415-1.958 138.312-31.267 31.382z"/>
    <path fill="#EBECF0" d="M200.782 177.895h-47.024l-71.73 6.934-72.287-6.934V8.01l71.987 5.2 73.541-5.2 71.942 9.823v133.481l-26.429 26.581z"/>
    <path fill="#fff" d="M197.429 181.429l-71.118-43.977L166 7.286h-16.571l-15.775 52.683-87.368-49.398L9.857 8l118.831 68.467-32.116 108.247 15.999-1.571 8.775-29.194 55.368 27.48h20.715z"/>
    <path fill="url(#paint1_linear)" d="M197.452 182.517l.554-35.067 33.791 1.363-34.345 33.704z"/>
    <path fill="#fff" d="M9.741 81.427l103.643 45.889 6.888 14.277-6.857 7.143L9.741 99.568V81.427zM200.53 182.517l.504-32.358 30.763 1.257-31.267 31.101zM150.557 155.307l43.246-142.035 17.202 2.348-48.448 147.116-12-7.429z"/>
    <path fill="#000" d="M81.728 184.829l71.986-6.934V8.01l-71.986 5.2" opacity=".1"/>
    <path fill="#fff" d="M189.334 81.427l37.877 9.718v18.142l-46.368-16.551 8.491-11.31zM44.981 116.281l-9.566 66.169 10.857 2.286 14.302-61.06-.017-8.654-15.576 1.259zM50 26.143L33.86 92.106l8.312 4.487L61.986 29.88 50 26.143z"/>
    <path fill="#00B8D9" d="M158.857 23.429c2.841 0 5.143-2.303 5.143-5.143s-2.302-5.143-5.143-5.143c-2.84 0-5.143 2.302-5.143 5.143 0 2.84 2.303 5.143 5.143 5.143zM192 63.429c2.84 0 5.143-2.303 5.143-5.143s-2.303-5.143-5.143-5.143-5.143 2.302-5.143 5.143c0 2.84 2.303 5.143 5.143 5.143zM48.857 63.143c1.894 0 3.429-1.535 3.429-3.429 0-1.893-1.535-3.428-3.429-3.428-1.893 0-3.428 1.535-3.428 3.428 0 1.894 1.535 3.429 3.428 3.429z"/>
    <path fill="#FF5630" d="M36 22c2.84 0 5.143-2.302 5.143-5.143 0-2.84-2.303-5.143-5.143-5.143s-5.143 2.303-5.143 5.143S33.16 22 36 22zM113.143 172c2.525 0 4.571-2.047 4.571-4.571 0-2.525-2.046-4.572-4.571-4.572s-4.571 2.047-4.571 4.572c0 2.524 2.046 4.571 4.571 4.571zM41.143 157.429c1.262 0 2.286-1.024 2.286-2.286 0-1.263-1.024-2.286-2.286-2.286-1.263 0-2.286 1.023-2.286 2.286 0 1.262 1.023 2.286 2.286 2.286zM138.571 61.714c1.894 0 3.429-1.535 3.429-3.428 0-1.894-1.535-3.429-3.429-3.429-1.893 0-3.428 1.535-3.428 3.429 0 1.893 1.535 3.428 3.428 3.428zM197.143 91.429c1.893 0 3.428-1.535 3.428-3.429s-1.535-3.429-3.428-3.429c-1.894 0-3.429 1.535-3.429 3.429s1.535 3.429 3.429 3.429zM128.286 94.286c3.787 0 6.857-3.07 6.857-6.857 0-3.788-3.07-6.858-6.857-6.858-3.787 0-6.858 3.07-6.858 6.858 0 3.787 3.071 6.857 6.858 6.857z"/>
    <path fill="#0065FF" fill-rule="evenodd" d="M169.429 94.333c-5.605 0-10.167 4.637-10.167 10.333 0 7.194 8.845 17.23 9.226 17.656l.941 1.059.94-1.059c.381-.426 9.226-10.462 9.226-17.656 0-5.696-4.562-10.333-10.166-10.333zm0 10.333c1.054 0 1.906-.865 1.906-1.937s-.852-1.938-1.906-1.938c-1.055 0-1.907.879-1.907 1.938 0 1.072.852 1.937 1.907 1.937zm-3.813 3.229c0-1.292 2.542-1.937 3.813-1.937 1.27 0 3.812.645 3.812 1.937v.155c-.928 1.085-2.287 1.782-3.812 1.782s-2.885-.697-3.813-1.782v-.155z" clip-rule="evenodd"/>
    <g clip-path="url(#clip0)">
        <path fill="#36B37E" fill-rule="evenodd" d="M47.155 29.107c0-4.653 3.763-8.416 8.416-8.416 4.654 0 8.417 3.763 8.417 8.416 0 6.313-8.416 15.631-8.416 15.631s-8.417-9.318-8.417-15.63zm5.21.2c0-1.66 1.346-3.005 3.006-3.005 1.074 0 2.066.573 2.603 1.503.537.93.537 2.076 0 3.006-.537.93-1.529 1.502-2.603 1.502-1.66 0-3.006-1.345-3.006-3.006z" clip-rule="evenodd"/>
    </g>
    <path stroke="#0065FF" stroke-dasharray="20 20" stroke-width="6" d="M52.857 44.286L36.143 103 154 162.143l13.429-36.857"/>
    <defs>
        <linearGradient id="paint0_linear" x1="118.129" x2="118.129" y1="192.927" y2=".259" gradientUnits="userSpaceOnUse">
            <stop stop-color="gray" stop-opacity=".25"/>
            <stop offset=".535" stop-color="gray" stop-opacity=".12"/>
            <stop offset="1" stop-color="gray" stop-opacity=".1"/>
        </linearGradient>
        <linearGradient id="paint1_linear" x1="214.625" x2="214.625" y1="182.517" y2="147.45" gradientUnits="userSpaceOnUse">
            <stop stop-opacity=".12"/>
            <stop offset=".551" stop-opacity=".09"/>
            <stop offset="1" stop-opacity=".02"/>
        </linearGradient>
        <clipPath id="clip0">
            <path fill="#fff" d="M0 0H28.857V28.857H0z" transform="translate(41.143 18.286)"/>
        </clipPath>
    </defs>
</svg>
