<svg xmlns="http://www.w3.org/2000/svg" width="236" height="194" fill="none" viewBox="0 0 236 194">
    <path fill="url(#paint0_linear)" d="M202.018 185.371h-45.647l-77.749 7.556-78.35-7.556V.259l78.025 5.667L158.008.259l77.978 10.704-2.002 142.154-31.966 32.254z"/>
    <path fill="#fff" d="M200.53 182.798h-44.648l-76.048 7.352-76.637-7.352V2.689l76.32 5.514 77.966-5.514 76.272 10.415-1.958 138.312-31.267 31.382z"/>
    <path fill="#EBECF0" d="M200.782 177.895h-47.024l-71.73 6.934-72.287-6.934V8.01l71.987 5.2 73.541-5.2 71.942 9.823v133.481l-26.429 26.581z"/>
    <path fill="#fff" d="M197.429 181.429l-71.118-43.977L166 7.286h-16.571l-15.775 52.683-87.368-49.398L9.857 8l118.831 68.467-32.116 108.247 15.999-1.571 8.775-29.194 55.368 27.48h20.715z"/>
    <path fill="url(#paint1_linear)" d="M197.452 182.517l.554-35.067 33.791 1.363-34.345 33.704z"/>
    <path fill="#fff" d="M9.741 81.427l103.643 45.889 6.888 14.277-6.857 7.143L9.741 99.568V81.427zM200.53 182.517l.504-32.358 30.763 1.257-31.267 31.101zM150.557 155.307l43.246-142.035 17.202 2.349-48.448 147.115-12-7.429z"/>
    <path fill="#000" d="M81.728 184.829l71.986-6.934V8.01l-71.986 5.2" opacity=".1"/>
    <path fill="#fff" d="M189.334 81.427l37.877 9.718v18.142l-46.368-16.551 8.491-11.31zM44.981 116.281l-9.566 66.169 10.857 2.286 14.302-61.06-.017-8.654-15.576 1.259zM50 26.143L33.86 92.106l8.312 4.487L61.986 29.88 50 26.143z"/>
    <path fill="#00B8D9" d="M158.857 23.429c2.841 0 5.143-2.303 5.143-5.143s-2.302-5.143-5.143-5.143c-2.84 0-5.143 2.302-5.143 5.143 0 2.84 2.303 5.143 5.143 5.143zM192 63.429c2.84 0 5.143-2.303 5.143-5.143s-2.303-5.143-5.143-5.143-5.143 2.302-5.143 5.143c0 2.84 2.303 5.143 5.143 5.143zM48.857 63.143c1.894 0 3.429-1.535 3.429-3.429 0-1.893-1.535-3.428-3.429-3.428-1.893 0-3.428 1.535-3.428 3.428 0 1.894 1.535 3.429 3.428 3.429z"/>
    <path fill="#FF5630" d="M36 22c2.84 0 5.143-2.302 5.143-5.143 0-2.84-2.303-5.143-5.143-5.143s-5.143 2.303-5.143 5.143S33.16 22 36 22zM197.143 91.429c1.893 0 3.428-1.535 3.428-3.429s-1.535-3.429-3.428-3.429c-1.894 0-3.429 1.535-3.429 3.429s1.535 3.429 3.429 3.429z"/>
    <path fill="#0065FF" fill-rule="evenodd" d="M171.143 89.762c-5.604 0-10.167 4.637-10.167 10.333 0 7.194 8.845 17.229 9.227 17.655l.94 1.06.94-1.06c.382-.426 9.227-10.461 9.227-17.655 0-5.696-4.563-10.333-10.167-10.333zm0 10.333c1.055 0 1.906-.866 1.906-1.938s-.851-1.937-1.906-1.937-1.906.878-1.906 1.937c0 1.072.851 1.938 1.906 1.938zm-3.813 3.228c0-1.291 2.542-1.937 3.813-1.937 1.271 0 3.812.646 3.812 1.937v.155c-.927 1.085-2.287 1.783-3.812 1.783s-2.885-.698-3.813-1.783v-.155z" clip-rule="evenodd"/>
    <path fill="#FF5630" d="M138.571 61.714c1.894 0 3.429-1.535 3.429-3.428 0-1.894-1.535-3.429-3.429-3.429-1.893 0-3.428 1.535-3.428 3.429 0 1.893 1.535 3.428 3.428 3.428zM128.286 94.286c3.787 0 6.857-3.07 6.857-6.857 0-3.788-3.07-6.858-6.857-6.858-3.787 0-6.858 3.07-6.858 6.858 0 3.787 3.071 6.857 6.858 6.857zM113.143 172c2.525 0 4.571-2.047 4.571-4.571 0-2.525-2.046-4.572-4.571-4.572s-4.571 2.047-4.571 4.572c0 2.524 2.046 4.571 4.571 4.571zM41.143 157.429c1.262 0 2.286-1.024 2.286-2.286 0-1.263-1.024-2.286-2.286-2.286-1.263 0-2.286 1.023-2.286 2.286 0 1.262 1.023 2.286 2.286 2.286z"/>
    <defs>
        <linearGradient id="paint0_linear" x1="118.129" x2="118.129" y1="192.927" y2=".259" gradientUnits="userSpaceOnUse">
            <stop stop-color="gray" stop-opacity=".25"/>
            <stop offset=".535" stop-color="gray" stop-opacity=".12"/>
            <stop offset="1" stop-color="gray" stop-opacity=".1"/>
        </linearGradient>
        <linearGradient id="paint1_linear" x1="214.625" x2="214.625" y1="182.517" y2="147.45" gradientUnits="userSpaceOnUse">
            <stop stop-opacity=".12"/>
            <stop offset=".551" stop-opacity=".09"/>
            <stop offset="1" stop-opacity=".02"/>
        </linearGradient>
    </defs>
</svg>
