<svg xmlns="http://www.w3.org/2000/svg" width="36" height="36" fill="none" viewBox="0 0 36 36">
    <path fill="#fff" d="M0 0H36V36H0z"/>
    <path fill="#0065ff" fill-rule="evenodd" d="M7.5 13.671C7.5 7.79 12.212 3 18 3s10.5 4.789 10.5 10.671c0 7.43-9.135 17.795-9.529 18.235L18 33l-.971-1.094c-.394-.44-9.529-10.805-9.529-18.235zm2.625 0c0 4.723 5.014 11.819 7.875 15.3 2.297-2.814 7.875-10.19 7.875-15.3 0-4.415-3.53-8.003-7.875-8.003-4.344 0-7.875 3.588-7.875 8.003zm7.875 0c1.09 0 1.969-.893 1.969-2 0-1.108-.88-2.001-1.969-2.001-1.09 0-1.969.907-1.969 2 0 1.108.88 2.001 1.969 2.001zm-3.938 3.335c0-1.334 2.626-2 3.938-2 1.313 0 3.938.666 3.938 2v.16c-.959 1.12-2.363 1.841-3.938 1.841-1.575 0-2.98-.72-3.938-1.84v-.16z" clip-rule="evenodd"/>
</svg>
