<svg xmlns="http://www.w3.org/2000/svg" width="297" height="117" fill="none" viewBox="0 0 297 117">
    <g clip-path="url(#clip0)">
        <path fill="#3F3D56" d="M297 85.539H0v.914h297v-.914z"/>
        <path fill="#2F2E41" d="M136.42 74.272c7.657-2.951 13.11-7.283 12.179-9.675-.932-2.391-7.894-1.938-15.552 1.014-7.657 2.951-13.11 7.283-12.179 9.675.932 2.391 7.894 1.938 15.552-1.014z"/>
        <path fill="#2F2E41" d="M104.948 103.576c16.424 0 29.738-13.247 29.738-29.588S121.372 44.4 104.948 44.4 75.209 57.647 75.209 73.988c0 16.34 13.314 29.588 29.739 29.588z"/>
        <path fill="#2F2E41" d="M100.43 97.209h-9.034v16.105h9.034V97.209zM118.499 97.209h-9.034v16.105h9.034V97.209z"/>
        <path fill="#2F2E41" d="M98.925 116.31c4.158 0 7.528-1.258 7.528-2.809 0-1.551-3.37-2.809-7.528-2.809-4.158 0-7.53 1.258-7.53 2.809 0 1.551 3.372 2.809 7.53 2.809zM116.994 115.935c4.158 0 7.528-1.257 7.528-2.809 0-1.551-3.37-2.809-7.528-2.809-4.158 0-7.529 1.258-7.529 2.809 0 1.552 3.371 2.809 7.529 2.809z"/>
        <path fill="#fff" d="M105.701 76.61c5.613 0 10.163-4.528 10.163-10.113s-4.55-10.112-10.163-10.112c-5.614 0-10.164 4.527-10.164 10.112s4.55 10.112 10.164 10.112z"/>
        <path fill="#3F3D56" d="M105.7 69.868c1.872 0 3.388-1.51 3.388-3.371 0-1.862-1.516-3.37-3.388-3.37-1.871 0-3.388 1.508-3.388 3.37s1.517 3.37 3.388 3.37z"/>
        <path fill="#4C9AFF" d="M76.1 46.472c-2.401-10.7 5.275-21.511 17.145-24.148 11.869-2.637 23.439 3.899 25.84 14.598 2.401 10.7-5.466 14.646-17.335 17.283-11.87 2.637-23.249 2.966-25.65-7.733z"/>
        <path fill="#2F2E41" d="M78.43 80.925c5.807-5.777 9.037-11.931 7.214-13.745-1.823-1.814-8.008 1.4-13.815 7.177-5.807 5.778-9.036 11.931-7.213 13.745 1.823 1.814 8.008-1.4 13.815-7.177z"/>
        <path fill="#fff" d="M90.34 84.662c0 2.896 7.494 8.614 15.81 8.614s16.114-8.152 16.114-11.048c0-2.896-7.798.562-16.114.562s-15.81-1.024-15.81 1.872z"/>
        <path fill="#2F2E41" d="M173.373 75.286c.931-2.392-4.521-6.724-12.179-9.675-7.657-2.952-14.62-3.406-15.551-1.014-.932 2.392 4.521 6.724 12.179 9.675 7.657 2.952 14.62 3.405 15.551 1.014z"/>
        <path fill="#2F2E41" d="M189.294 103.576c16.424 0 29.738-13.247 29.738-29.588S205.718 44.4 189.294 44.4s-29.739 13.247-29.739 29.588c0 16.34 13.315 29.588 29.739 29.588z"/>
        <path fill="#2F2E41" d="M193.811 113.314h9.034V97.209h-9.034v16.105zM175.742 113.314h9.035V97.209h-9.035v16.105z"/>
        <path fill="#2F2E41" d="M195.317 116.31c4.158 0 7.529-1.258 7.529-2.809 0-1.551-3.371-2.809-7.529-2.809-4.158 0-7.529 1.258-7.529 2.809 0 1.551 3.371 2.809 7.529 2.809zM177.248 115.935c4.158 0 7.529-1.257 7.529-2.809 0-1.551-3.371-2.809-7.529-2.809-4.158 0-7.529 1.258-7.529 2.809 0 1.552 3.371 2.809 7.529 2.809z"/>
        <path fill="#fff" d="M188.541 76.61c5.614 0 10.164-4.528 10.164-10.113s-4.55-10.112-10.164-10.112c-5.613 0-10.164 4.527-10.164 10.112s4.551 10.112 10.164 10.112z"/>
        <path fill="#3F3D56" d="M188.541 69.868c1.871 0 3.388-1.51 3.388-3.371 0-1.862-1.517-3.37-3.388-3.37s-3.388 1.508-3.388 3.37 1.517 3.37 3.388 3.37z"/>
        <path fill="#4C9AFF" d="M218.141 46.472c2.402-10.7-5.274-21.511-17.144-24.148-11.87-2.637-23.439 3.899-25.84 14.598-2.401 10.7 5.465 14.646 17.335 17.283 11.87 2.637 23.248 2.966 25.649-7.733z"/>
        <path fill="#2F2E41" d="M229.625 88.102c1.823-1.814-1.406-7.968-7.213-13.745-5.807-5.777-11.992-8.99-13.815-7.177-1.823 1.814 1.407 7.968 7.214 13.745 5.806 5.778 11.991 8.99 13.814 7.177z"/>
        <path fill="#fff" d="M203.901 84.662c0 2.896-7.494 8.614-15.81 8.614s-16.113-8.152-16.113-11.048c0-2.896 7.797.562 16.113.562 8.316 0 15.81-1.024 15.81 1.872z"/>
        <path fill="#E6E6E6" d="M277.694 43.446c0 19.12-11.425 25.797-25.518 25.797s-25.518-6.676-25.518-25.797C226.658 24.325 252.176 0 252.176 0s25.518 24.325 25.518 43.446z"/>
        <path fill="#3F3D56" d="M251.247 66.318l.261-16.002 10.876-19.798-10.835 17.287.117-7.195 7.496-14.324-7.465 12.42.212-12.942 8.026-11.403-7.993 9.368L252.074 0l-.83 31.414.068-1.296-8.161-12.429 8.03 14.916-.76 14.454-.023-.384-9.408-13.08 9.38 14.435-.095 1.807-.017.028.007.148-1.929 36.669h2.578l.309-18.94 9.357-14.4-9.333 12.976z"/>
    </g>
    <defs>
        <clipPath id="clip0">
            <path fill="#fff" d="M0 0H297V116.644H0z"/>
        </clipPath>
    </defs>
</svg>
