<svg width="201" height="178" viewBox="0 0 201 178" fill="none" xmlns="http://www.w3.org/2000/svg">
<path d="M180.282 160.354C177.783 168.685 181.662 177.202 181.662 177.202C181.662 177.202 189.592 172.213 192.091 163.882C194.591 155.551 190.712 147.033 190.712 147.033C190.712 147.033 182.781 152.023 180.282 160.354Z" fill="#F2F2F2"/>
<path d="M184.077 160.579C186.18 169.018 181.904 177.344 181.904 177.344C181.904 177.344 174.217 171.988 172.114 163.549C170.011 155.109 174.287 146.784 174.287 146.784C174.287 146.784 181.973 152.14 184.077 160.579Z" fill="#F2F2F2"/>
<path d="M201 177.336H0V178H201V177.336Z" fill="#3F3D56"/>
<path d="M127.788 0C121.875 0 116.204 2.34419 112.022 6.51688C107.841 10.6896 105.492 16.3489 105.492 22.25C105.492 34.5373 128.853 79.8675 128.853 79.8675C128.853 79.8675 150.084 34.544 150.084 22.2533C150.085 19.3314 149.509 16.438 148.388 13.7384C147.268 11.0387 145.626 8.58564 143.556 6.51922C141.486 4.45281 139.029 2.81352 136.324 1.69495C133.619 0.576381 130.719 0.000436074 127.791 0H127.788ZM127.788 37.0878C125.478 37.0878 123.22 36.4041 121.299 35.1233C119.378 33.8425 117.881 32.022 116.997 29.8921C116.112 27.7622 115.881 25.4185 116.332 23.1574C116.783 20.8963 117.895 18.8193 119.529 17.1891C121.162 15.559 123.243 14.4488 125.509 13.9991C127.775 13.5493 130.124 13.7801 132.258 14.6624C134.392 15.5446 136.217 17.0386 137.5 18.9555C138.784 20.8724 139.469 23.126 139.469 25.4314V25.4314C139.469 28.5229 138.238 31.4877 136.048 33.6737C133.857 35.8597 130.886 37.0878 127.788 37.0878V37.0878Z" fill="#4C9AFF"/>
<path d="M119.721 123.129C122.267 116.483 122.636 110.448 120.545 109.651C118.454 108.853 114.695 113.595 112.15 120.241C109.604 126.888 109.235 132.922 111.326 133.72C113.417 134.517 117.176 129.776 119.721 123.129Z" fill="#2F2E41"/>
<path d="M117.557 145.271C119.841 131.224 110.282 117.988 96.2054 115.709C82.1291 113.429 68.8661 122.969 66.5819 137.016C64.2976 151.063 73.8569 164.298 87.9333 166.578C102.01 168.857 115.273 159.318 117.557 145.271Z" fill="#2F2E41"/>
<path d="M88.1669 161.396H80.1802V175.343H88.1669V161.396Z" fill="#2F2E41"/>
<path d="M103.808 161.396H96.1538V175.343H103.808V161.396Z" fill="#2F2E41"/>
<path d="M92.6595 143.463C97.5299 143.463 101.478 139.523 101.478 134.662C101.478 129.802 97.5299 125.862 92.6595 125.862C87.7891 125.862 83.8408 129.802 83.8408 134.662C83.8408 139.523 87.7891 143.463 92.6595 143.463Z" fill="white"/>
<path d="M92.8258 137.485C94.48 137.485 95.8209 136.221 95.8209 134.662C95.8209 133.103 94.48 131.84 92.8258 131.84C91.1717 131.84 89.8308 133.103 89.8308 134.662C89.8308 136.221 91.1717 137.485 92.8258 137.485Z" fill="#3F3D56"/>
<path d="M66.9198 117.133C64.8244 107.836 71.5225 98.4411 81.8805 96.1496C92.2384 93.8581 102.334 99.5376 104.429 108.835C106.525 118.133 99.66 121.562 89.3021 123.853C78.9441 126.145 69.0152 126.431 66.9198 117.133Z" fill="#FFAB00"/>
<path d="M74.6512 134.708C75.6104 132.69 71.1655 128.582 64.7231 125.533C58.2807 122.483 52.2805 121.648 51.3213 123.666C50.3621 125.684 54.8071 129.792 61.2494 132.841C67.6918 135.891 73.692 136.726 74.6512 134.708Z" fill="#2F2E41"/>
<path d="M79.5146 150.574C79.5146 153.096 85.9989 158.075 93.1941 158.075C100.389 158.075 107.136 150.976 107.136 148.454C107.136 145.933 100.389 148.943 93.1941 148.943C85.9989 148.943 79.5146 148.053 79.5146 150.574Z" fill="white"/>
<path d="M119.721 123.129C122.267 116.483 122.636 110.448 120.545 109.651C118.454 108.853 114.695 113.595 112.15 120.241C109.604 126.888 109.235 132.922 111.326 133.72C113.417 134.517 117.176 129.776 119.721 123.129Z" fill="#2F2E41"/>
<path d="M117.557 145.271C119.841 131.224 110.282 117.988 96.2054 115.709C82.1291 113.429 68.8661 122.969 66.5819 137.016C64.2976 151.063 73.8569 164.298 87.9333 166.578C102.01 168.857 115.273 159.318 117.557 145.271Z" fill="#2F2E41"/>
<path d="M88.1669 161.396H80.1802V175.343H88.1669V161.396Z" fill="#2F2E41"/>
<path d="M103.808 161.396H96.1538V175.343H103.808V161.396Z" fill="#2F2E41"/>
<path d="M86.8358 178C90.5116 178 93.4914 176.885 93.4914 175.509C93.4914 174.134 90.5116 173.019 86.8358 173.019C83.16 173.019 80.1802 174.134 80.1802 175.509C80.1802 176.885 83.16 178 86.8358 178Z" fill="#2F2E41"/>
<path d="M102.643 177.668C106.227 177.668 109.132 176.553 109.132 175.177C109.132 173.802 106.227 172.687 102.643 172.687C99.0591 172.687 96.1538 173.802 96.1538 175.177C96.1538 176.553 99.0591 177.668 102.643 177.668Z" fill="#2F2E41"/>
<path d="M92.6595 143.463C97.5299 143.463 101.478 139.523 101.478 134.662C101.478 129.802 97.5299 125.862 92.6595 125.862C87.7891 125.862 83.8408 129.802 83.8408 134.662C83.8408 139.523 87.7891 143.463 92.6595 143.463Z" fill="white"/>
<path d="M92.8258 137.485C94.48 137.485 95.8209 136.221 95.8209 134.662C95.8209 133.103 94.48 131.84 92.8258 131.84C91.1717 131.84 89.8308 133.103 89.8308 134.662C89.8308 136.221 91.1717 137.485 92.8258 137.485Z" fill="#3F3D56"/>
<path d="M66.9198 117.133C64.8244 107.836 71.5225 98.4411 81.8805 96.1496C92.2384 93.8581 102.334 99.5376 104.429 108.835C106.525 118.133 99.66 121.562 89.3021 123.853C78.9441 126.145 69.0152 126.431 66.9198 117.133Z" fill="#4C9AFF"/>
<path d="M74.6512 134.708C75.6104 132.69 71.1655 128.582 64.7231 125.533C58.2807 122.483 52.2805 121.648 51.3213 123.666C50.3621 125.684 54.8071 129.792 61.2494 132.841C67.6918 135.891 73.692 136.726 74.6512 134.708Z" fill="#2F2E41"/>
<path d="M79.5146 150.574C79.5146 153.096 85.9989 158.075 93.1941 158.075C100.389 158.075 107.136 150.976 107.136 148.454C107.136 145.933 100.389 148.943 93.1941 148.943C85.9989 148.943 79.5146 148.053 79.5146 150.574Z" fill="white"/>
<path d="M137.814 105.467C137.905 104.294 137.576 103.128 136.885 102.175L128.179 95.9753C128.014 95.8577 127.827 95.7737 127.63 95.7281C127.432 95.6825 127.227 95.6762 127.027 95.7096C126.827 95.743 126.635 95.8154 126.463 95.9227C126.291 96.03 126.142 96.1701 126.024 96.335L124.772 98.0852C124.768 98.0805 124.768 98.0732 124.762 98.0694C124.737 98.0515 124.706 98.0443 124.676 98.0493C124.645 98.0544 124.618 98.0713 124.6 98.0964L124.087 98.8138C124.078 98.8262 124.072 98.8403 124.068 98.8552C124.065 98.87 124.064 98.8854 124.067 98.9005C124.069 98.9156 124.075 98.93 124.083 98.9429C124.091 98.9559 124.102 98.9671 124.114 98.976C124.12 98.98 124.126 98.9774 124.132 98.9802L123.579 99.7536C123.576 99.7495 123.572 99.7456 123.569 99.742C123.555 99.7322 123.539 99.7252 123.523 99.7214C123.506 99.7176 123.489 99.717 123.472 99.7198C123.456 99.7226 123.44 99.7286 123.425 99.7376C123.411 99.7465 123.399 99.7582 123.389 99.772L122.409 101.142C122.399 101.156 122.392 101.171 122.389 101.188C122.385 101.204 122.384 101.221 122.387 101.238C122.39 101.254 122.396 101.27 122.405 101.285C122.414 101.299 122.426 101.311 122.439 101.321C122.444 101.324 122.449 101.326 122.454 101.328L122.056 101.884C122.053 101.881 122.052 101.878 122.049 101.876C122.022 101.857 121.989 101.849 121.957 101.855C121.925 101.86 121.897 101.878 121.878 101.904L120.88 103.299C120.861 103.325 120.854 103.358 120.859 103.39C120.864 103.422 120.882 103.451 120.909 103.47C120.912 103.472 120.916 103.472 120.919 103.474L111.544 116.585C111.454 117.757 111.783 118.924 112.473 119.877L121.179 126.076C121.344 126.194 121.531 126.278 121.729 126.323C121.926 126.369 122.131 126.375 122.331 126.342C122.531 126.308 122.723 126.236 122.895 126.129C123.067 126.021 123.217 125.881 123.334 125.716L133.423 111.608C133.433 111.623 133.446 111.636 133.46 111.648C133.482 111.664 133.508 111.675 133.534 111.68C133.561 111.686 133.588 111.687 133.615 111.682C133.642 111.678 133.667 111.668 133.69 111.653C133.713 111.639 133.733 111.62 133.749 111.598L135.48 109.177C135.496 109.155 135.507 109.13 135.513 109.103C135.52 109.077 135.521 109.05 135.516 109.023C135.512 108.996 135.503 108.97 135.488 108.947C135.474 108.924 135.456 108.904 135.434 108.888C135.418 108.878 135.401 108.871 135.383 108.866L137.814 105.467Z" fill="#3A3768"/>
<path d="M136.099 102.543L134.818 101.625L134.707 101.778C134.571 101.966 134.366 102.093 134.138 102.133C133.909 102.173 133.673 102.122 133.481 101.992L129.384 99.0731C129.19 98.9343 129.059 98.7242 129.02 98.4889C128.981 98.2537 129.037 98.0126 129.176 97.8186L129.286 97.6656L128.06 96.8088C127.825 96.6399 127.532 96.5709 127.247 96.6172C126.961 96.6634 126.705 96.821 126.536 97.0553L126.533 97.0597L112.379 116.857C112.211 117.093 112.143 117.385 112.19 117.671C112.237 117.956 112.395 118.211 112.63 118.381L120.689 124.115C120.924 124.283 121.217 124.351 121.502 124.304C121.788 124.257 122.043 124.098 122.212 123.863L122.215 123.858L136.369 104.067C136.536 103.831 136.602 103.538 136.553 103.254C136.504 102.969 136.344 102.715 136.107 102.549L136.099 102.543Z" fill="#F2F2F2"/>
<path d="M131.12 99.1028L132.368 99.9914C132.389 100.006 132.407 100.025 132.42 100.047C132.434 100.069 132.443 100.093 132.447 100.119C132.452 100.144 132.451 100.17 132.445 100.195C132.439 100.22 132.428 100.244 132.414 100.265C132.399 100.286 132.38 100.303 132.358 100.317C132.336 100.331 132.312 100.34 132.286 100.344C132.261 100.348 132.235 100.347 132.21 100.342C132.184 100.336 132.161 100.325 132.14 100.31L130.892 99.4216C130.871 99.4067 130.853 99.3878 130.839 99.366C130.826 99.3441 130.817 99.3199 130.812 99.2945C130.808 99.2691 130.809 99.2432 130.815 99.2181C130.82 99.1931 130.831 99.1694 130.846 99.1485V99.1485C130.861 99.1275 130.88 99.1097 130.902 99.0961C130.924 99.0825 130.948 99.0733 130.973 99.0691C130.999 99.0648 131.025 99.0656 131.05 99.0714C131.075 99.0772 131.099 99.0879 131.12 99.1028V99.1028Z" fill="#E6E8EC"/>
<path d="M132.8 100.799C132.922 100.799 133.021 100.7 133.021 100.579C133.021 100.457 132.922 100.358 132.8 100.358C132.678 100.358 132.579 100.457 132.579 100.579C132.579 100.7 132.678 100.799 132.8 100.799Z" fill="#E6E8EC"/>
</svg>
