<svg xmlns="http://www.w3.org/2000/svg" width="201" height="178" fill="none" viewBox="0 0 201 178">
    <path fill="#F2F2F2" d="M180.282 160.354c-2.499 8.331 1.38 16.848 1.38 16.848s7.93-4.989 10.429-13.32c2.5-8.331-1.379-16.849-1.379-16.849s-7.931 4.99-10.43 13.321z"/>
    <path fill="#F2F2F2" d="M184.077 160.579c2.103 8.439-2.173 16.765-2.173 16.765s-7.687-5.356-9.79-13.795c-2.103-8.44 2.173-16.765 2.173-16.765s7.686 5.356 9.79 13.795z"/>
    <path fill="#3F3D56" d="M201 177.336H0V178h201v-.664z"/>
    <path fill="#FFAB00" d="M127.788 0c-5.913 0-11.584 2.344-15.766 6.517-4.181 4.173-6.53 9.832-6.53 15.733 0 12.287 23.361 57.618 23.361 57.618s21.231-45.324 21.231-57.615c.001-2.922-.575-5.815-1.696-8.515-1.12-2.7-2.762-5.152-4.832-7.219-2.07-2.066-4.527-3.705-7.232-4.824C133.619.576 130.719 0 127.791 0h-.003zm0 37.088c-2.31 0-4.568-.684-6.489-1.965-1.921-1.28-3.418-3.101-4.302-5.23-.885-2.13-1.116-4.474-.665-6.736.451-2.26 1.563-4.338 3.197-5.968 1.633-1.63 3.714-2.74 5.98-3.19 2.266-.45 4.615-.219 6.749.663 2.134.883 3.959 2.377 5.242 4.293 1.284 1.917 1.969 4.171 1.969 6.476 0 3.092-1.231 6.057-3.421 8.243-2.191 2.186-5.162 3.414-8.26 3.414z"/>
    <path fill="#2F2E41" d="M119.721 123.129c2.546-6.646 2.915-12.681.824-13.478-2.091-.798-5.85 3.944-8.395 10.59-2.546 6.647-2.915 12.681-.824 13.479 2.091.797 5.85-3.944 8.395-10.591z"/>
    <path fill="#2F2E41" d="M117.557 145.271c2.284-14.047-7.275-27.283-21.352-29.562-14.076-2.28-27.339 7.26-29.623 21.307-2.284 14.047 7.275 27.282 21.351 29.562 14.077 2.279 27.34-7.26 29.624-21.307z"/>
    <path fill="#2F2E41" d="M88.167 161.396H80.18v13.947h7.987v-13.947zM103.808 161.396h-7.654v13.947h7.654v-13.947z"/>
    <path fill="#fff" d="M92.66 143.463c4.87 0 8.818-3.94 8.818-8.801 0-4.86-3.948-8.8-8.819-8.8-4.87 0-8.818 3.94-8.818 8.8 0 4.861 3.948 8.801 8.819 8.801z"/>
    <path fill="#3F3D56" d="M92.826 137.485c1.654 0 2.995-1.264 2.995-2.823s-1.341-2.822-2.995-2.822c-1.654 0-2.995 1.263-2.995 2.822 0 1.559 1.34 2.823 2.995 2.823z"/>
    <path fill="#FFAB00" d="M66.92 117.133c-2.096-9.297 4.602-18.692 14.96-20.983 10.358-2.292 20.454 3.388 22.549 12.685 2.096 9.298-4.769 12.727-15.127 15.018-10.358 2.292-20.287 2.578-22.382-6.72z"/>
    <path fill="#2F2E41" d="M74.651 134.708c.96-2.018-3.486-6.126-9.928-9.175-6.442-3.05-12.442-3.885-13.402-1.867-.959 2.018 3.486 6.126 9.928 9.175 6.443 3.05 12.443 3.885 13.402 1.867z"/>
    <path fill="#fff" d="M79.515 150.574c0 2.522 6.484 7.501 13.68 7.501 7.194 0 13.941-7.099 13.941-9.621 0-2.521-6.747.489-13.942.489s-13.68-.89-13.68 1.631z"/>
    <path fill="#2F2E41" d="M119.721 123.129c2.546-6.646 2.915-12.681.824-13.478-2.091-.798-5.85 3.944-8.395 10.59-2.546 6.647-2.915 12.681-.824 13.479 2.091.797 5.85-3.944 8.395-10.591z"/>
    <path fill="#2F2E41" d="M117.557 145.271c2.284-14.047-7.275-27.283-21.352-29.562-14.076-2.28-27.339 7.26-29.623 21.307-2.284 14.047 7.275 27.282 21.351 29.562 14.077 2.279 27.34-7.26 29.624-21.307z"/>
    <path fill="#2F2E41" d="M88.167 161.396H80.18v13.947h7.987v-13.947zM103.808 161.396h-7.654v13.947h7.654v-13.947z"/>
    <path fill="#2F2E41" d="M86.836 178c3.676 0 6.655-1.115 6.655-2.491 0-1.375-2.98-2.49-6.655-2.49-3.676 0-6.656 1.115-6.656 2.49 0 1.376 2.98 2.491 6.656 2.491zM102.643 177.668c3.584 0 6.489-1.115 6.489-2.491 0-1.375-2.905-2.49-6.489-2.49s-6.49 1.115-6.49 2.49c0 1.376 2.906 2.491 6.49 2.491z"/>
    <path fill="#fff" d="M92.66 143.463c4.87 0 8.818-3.94 8.818-8.801 0-4.86-3.948-8.8-8.819-8.8-4.87 0-8.818 3.94-8.818 8.8 0 4.861 3.948 8.801 8.819 8.801z"/>
    <path fill="#3F3D56" d="M92.826 137.485c1.654 0 2.995-1.264 2.995-2.823s-1.341-2.822-2.995-2.822c-1.654 0-2.995 1.263-2.995 2.822 0 1.559 1.34 2.823 2.995 2.823z"/>
    <path fill="#FFAB00" d="M66.92 117.133c-2.096-9.297 4.602-18.692 14.96-20.983 10.358-2.292 20.454 3.388 22.549 12.685 2.096 9.298-4.769 12.727-15.127 15.018-10.358 2.292-20.287 2.578-22.382-6.72z"/>
    <path fill="#2F2E41" d="M74.651 134.708c.96-2.018-3.486-6.126-9.928-9.175-6.442-3.05-12.442-3.885-13.402-1.867-.959 2.018 3.486 6.126 9.928 9.175 6.443 3.05 12.443 3.885 13.402 1.867z"/>
    <path fill="#fff" d="M79.515 150.574c0 2.522 6.484 7.501 13.68 7.501 7.194 0 13.941-7.099 13.941-9.621 0-2.521-6.747.489-13.942.489s-13.68-.89-13.68 1.631z"/>
    <path fill="#3A3768" d="M137.814 105.467c.091-1.173-.238-2.339-.929-3.292l-8.706-6.2c-.165-.117-.352-.201-.549-.247-.198-.045-.403-.052-.603-.018-.2.033-.392.105-.564.213-.172.107-.321.247-.439.412l-1.252 1.75c-.004-.004-.004-.012-.01-.016-.025-.017-.056-.025-.086-.02-.031.005-.058.022-.076.047l-.513.718c-.009.012-.015.026-.019.041-.003.015-.004.03-.001.045.002.016.008.03.016.043.008.013.019.024.031.033.006.004.012.001.018.004l-.553.774-.01-.012c-.014-.01-.03-.017-.046-.02-.017-.004-.034-.005-.051-.002-.016.003-.032.009-.047.018-.014.008-.026.02-.036.034l-.98 1.37c-.01.014-.017.029-.02.046-.004.016-.005.033-.002.05.003.016.009.032.018.047.009.014.021.026.034.036l.015.007-.398.556-.007-.008c-.027-.019-.06-.027-.092-.021-.032.005-.06.023-.079.049l-.998 1.395c-.019.026-.026.059-.021.091.005.032.023.061.05.08l.01.004-9.375 13.111c-.09 1.172.239 2.339.929 3.292l8.706 6.199c.165.118.352.202.55.247.197.046.402.052.602.019.2-.034.392-.106.564-.213.172-.108.322-.248.439-.413l10.089-14.108c.01.015.023.028.037.04.022.016.048.027.074.032.027.006.054.007.081.002.027-.004.052-.014.075-.029.023-.014.043-.033.059-.055l1.731-2.421c.016-.022.027-.047.033-.074.007-.026.008-.053.003-.08-.004-.027-.013-.053-.028-.076-.014-.023-.032-.043-.054-.059-.016-.01-.033-.017-.051-.022l2.431-3.399z"/>
    <path fill="#F2F2F2" d="M136.099 102.543l-1.281-.918-.111.153c-.136.188-.341.315-.569.355-.229.04-.465-.011-.657-.141l-4.097-2.919c-.194-.139-.325-.349-.364-.584-.039-.235.017-.476.156-.67l.11-.153-1.226-.857c-.235-.17-.528-.238-.813-.192-.286.046-.542.204-.711.438l-.003.005-14.154 19.797c-.168.236-.236.528-.189.814.047.285.205.54.44.71l8.059 5.734c.235.168.528.236.813.189.286-.047.541-.206.71-.441l.003-.005 14.154-19.791c.167-.236.233-.529.184-.813-.049-.285-.209-.539-.446-.705l-.008-.006z"/>
    <path fill="#E6E8EC" d="M131.12 99.103l1.248.888c.021.015.039.034.052.056.014.022.023.046.027.072.005.025.004.051-.002.076s-.017.049-.031.07c-.015.021-.034.038-.056.052-.022.014-.046.023-.072.027-.025.004-.051.003-.076-.002-.026-.006-.049-.017-.07-.032l-1.248-.888c-.021-.015-.039-.034-.053-.056-.013-.022-.022-.046-.027-.072-.004-.025-.003-.05.003-.076.005-.025.016-.049.031-.07.015-.02.034-.038.056-.052.022-.014.046-.023.071-.027.026-.004.052-.003.077.002.025.006.049.017.07.032zM132.8 100.799c.122 0 .221-.099.221-.22 0-.122-.099-.221-.221-.221s-.221.099-.221.221c0 .121.099.22.221.22z"/>
</svg>
