<svg xmlns="http://www.w3.org/2000/svg" width="36" height="36" fill="none" viewBox="0 0 36 36">
    <path fill="#fff" d="M0 0H36V36H0z"/>
    <path fill="#0065ff" fill-rule="evenodd" d="M18 3C12.195 3 7.5 7.695 7.5 13.5 7.5 21.375 18 33 18 33s10.5-11.625 10.5-19.5C28.5 7.695 23.805 3 18 3zm-7.5 10.5C10.5 9.36 13.86 6 18 6c4.14 0 7.5 3.36 7.5 7.5 0 4.32-4.32 10.785-7.5 14.82-3.12-4.005-7.5-10.545-7.5-14.82zm3.75 0c0-2.071 1.679-3.75 3.75-3.75 1.34 0 2.578.715 3.248 1.875.67 1.16.67 2.59 0 3.75-.67 1.16-1.908 1.875-3.248 1.875-2.071 0-3.75-1.679-3.75-3.75z" clip-rule="evenodd"/>
</svg>
